/* XPM */
static char * 0_xpm[] = {
"32 32 6 1",
" 	c #299C18",
".	c #108B10",
"+	c #088308",
"@	c #189420",
"#	c #31A420",
"$	c #41AC29",
" ..+@.@@.+. .@. .@@. @  @.@ .@. ",
"@+@@+@+@+@@+ @ . .  . . .  . @ .",
".@@+.+.@@.@.@. @@  .@.@  @ @ . @",
"+.+@@@@..@+.+.. .@.    @@ .@.@.@",
"@@+.@+.@+@+@.++ @ @@ @ . .@@. # ",
"+...@.+@.+@+....@. ..@@@ @ . @@ ",
"@+@+..@.+.+@.@+.+@@  @. . .  @#@",
"+.+@.+@+@@.@+@..@@@. .@.@ @ @#  ",
".@.@+@+@..@...@@.+. .@. .@@@@#@ ",
"@+@.@.@@.+..@++@+@@+ @ . @@##@ @",
"@@+@+@+.@@@+@..@@.@.@. @ #@@   @",
".+@.@+@+@+.@+@@..@+.+..@#@@@##@@",
"@+..+@+@.@..@..@+@+@.+# @@## @@ ",
"@.@+@+...+@++.+@.+@+.   @ @@   #",
"+@+@..+.+..@@.@.+.+@ #$ @ #  @#@",
".@..+...@@.+@+@+@@.# $##$@ @@ @ ",
"+..+@.@@.+.@+.+@..# #$ # # @ @  ",
"@+@@+@+@+@@+@.@@. #   #   #@  @ ",
".@@+.+.@@.@.@++.$   # # ##   @ @",
"+.+@@@@..@+.+.@  #   #   # #  @@",
"@@+.@+.@+@+@.+$#  $$#   # # # # ",
"+...@.+@.+@+.  # #  ### # ##$   ",
"@+@+..@.+.+@ #$  #$##  $ #   #$ ",
"..+@.+@+@@.# $##$ #  ##   ## $##",
"@ .@+@+@..# #$ # ## # ### # #$ #",
" . .@.@@. #   #   # ## ## #   # ",
"  . +@+.$   # # ##  #   $   # # ",
"@. @ +@  #   #   # # ##  #   #  ",
" .@@. @#  $$ $ #$$ ##  #  $$ $ #",
" @ . @@@ $#   #$$## $    $#   #$",
". .  @@##  ###$  #  #  $$  ###$ ",
"@ @ @# @@@$ #  ## ## $#   $ #  #"};
