/* XPM */
static char * 1_xpm[] = {
"32 32 256 2",
"  	c #000000",
". 	c #080000",
"+ 	c #000018",
"@ 	c #100000",
"# 	c #180000",
"$ 	c #000038",
"% 	c #200800",
"& 	c #280000",
"* 	c #281000",
"= 	c #300000",
"- 	c #282008",
"; 	c #302000",
"> 	c #382810",
", 	c #303000",
"' 	c #383000",
") 	c #202020",
"! 	c #282828",
"~ 	c #303030",
"{ 	c #383838",
"] 	c #000040",
"^ 	c #000048",
"/ 	c #000058",
"( 	c #000060",
"_ 	c #000070",
": 	c #000078",
"< 	c #280040",
"[ 	c #300058",
"} 	c #307800",
"| 	c #387000",
"1 	c #004040",
"2 	c #005858",
"3 	c #006868",
"4 	c #007070",
"5 	c #007878",
"6 	c #400000",
"7 	c #480000",
"8 	c #500000",
"9 	c #403018",
"0 	c #483818",
"a 	c #503818",
"b 	c #600000",
"c 	c #680000",
"d 	c #700000",
"e 	c #400040",
"f 	c #580058",
"g 	c #400070",
"h 	c #680070",
"i 	c #404000",
"j 	c #484000",
"k 	c #484800",
"l 	c #485800",
"m 	c #505000",
"n 	c #585800",
"o 	c #584020",
"p 	c #406000",
"q 	c #684820",
"r 	c #704828",
"s 	c #686800",
"t 	c #707000",
"u 	c #404040",
"v 	c #484848",
"w 	c #505050",
"x 	c #606060",
"y 	c #707070",
"z 	c #787878",
"A 	c #000088",
"B 	c #000098",
"C 	c #0000A0",
"D 	c #0000A8",
"E 	c #0000B0",
"F 	c #0000B8",
"G 	c #0000C8",
"H 	c #0000D0",
"I 	c #0000E0",
"J 	c #0000E8",
"K 	c #0000F8",
"L 	c #500080",
"M 	c #600098",
"N 	c #7000B0",
"O 	c #009800",
"P 	c #108800",
"Q 	c #00A000",
"R 	c #00B000",
"S 	c #208000",
"T 	c #00C000",
"U 	c #00D000",
"V 	c #00D800",
"W 	c #008080",
"X 	c #008888",
"Y 	c #009898",
"Z 	c #00A0A0",
"` 	c #00A8A8",
" .	c #00B0B0",
"..	c #20B0B0",
"+.	c #00C8C8",
"@.	c #00E0E0",
"#.	c #00F8F8",
"$.	c #20F8F8",
"%.	c #58B8F8",
"&.	c #48C0C0",
"*.	c #40F8F8",
"=.	c #58F8F8",
"-.	c #70C8C8",
";.	c #78F8F8",
">.	c #800000",
",.	c #880000",
"'.	c #980000",
").	c #A00000",
"!.	c #B00000",
"~.	c #B80000",
"{.	c #984800",
"].	c #805028",
"^.	c #885830",
"/.	c #905830",
"(.	c #986038",
"_.	c #B05000",
":.	c #A06038",
"<.	c #A86840",
"[.	c #B07040",
"}.	c #B87848",
"|.	c #C80000",
"1.	c #D00000",
"2.	c #E00000",
"3.	c #E80000",
"4.	c #C86000",
"5.	c #E06800",
"6.	c #F87800",
"7.	c #C87848",
"8.	c #800080",
"9.	c #980088",
"0.	c #980098",
"a.	c #B000B0",
"b.	c #808000",
"c.	c #909000",
"d.	c #989800",
"e.	c #A8A800",
"f.	c #F88820",
"g.	c #D08050",
"h.	c #D88850",
"i.	c #E88858",
"j.	c #F89840",
"k.	c #F09058",
"l.	c #F89860",
"m.	c #F8A858",
"n.	c #F8A070",
"o.	c #C0C000",
"p.	c #D0D000",
"q.	c #E0E000",
"r.	c #E8E800",
"s.	c #F8F800",
"t.	c #888888",
"u.	c #989898",
"v.	c #A8A8A8",
"w.	c #B0B0B0",
"x.	c #98D8D8",
"y.	c #98F8F8",
"z.	c #B8E8E8",
"A.	c #B8F8F8",
"B.	c #F8B080",
"C.	c #F8B890",
"D.	c #F8C0A0",
"E.	c #C0C0C0",
"F.	c #D0D0D0",
"G.	c #D8D8D8",
"H.	c #D8F0F0",
"I.	c #D8F8F8",
"J.	c #F8D8C0",
"K.	c #E8E8E8",
"L.	c #F8F8F8",
"M.	c #000000",
"N.	c #000000",
"O.	c #000000",
"P.	c #000000",
"Q.	c #000000",
"R.	c #000000",
"S.	c #000000",
"T.	c #000000",
"U.	c #000000",
"V.	c #000000",
"W.	c #000000",
"X.	c #000000",
"Y.	c #000000",
"Z.	c #000000",
"`.	c #000000",
" +	c #000000",
".+	c #000000",
"++	c #000000",
"@+	c #000000",
"#+	c #000000",
"$+	c #000000",
"%+	c #000000",
"&+	c #000000",
"*+	c #000000",
"=+	c #000000",
"-+	c #000000",
";+	c #000000",
">+	c #000000",
",+	c #000000",
"'+	c #000000",
")+	c #000000",
"!+	c #000000",
"~+	c #000000",
"{+	c #000000",
"]+	c #000000",
"^+	c #000000",
"/+	c #000000",
"(+	c #000000",
"_+	c #000000",
":+	c #000000",
"<+	c #000000",
"[+	c #000000",
"}+	c #000000",
"|+	c #000000",
"1+	c #000000",
"2+	c #000000",
"3+	c #000000",
"4+	c #000000",
"5+	c #000000",
"6+	c #000000",
"7+	c #000000",
"8+	c #000000",
"9+	c #000000",
"0+	c #000000",
"a+	c #000000",
"b+	c #000000",
"c+	c #000000",
"d+	c #000000",
"e+	c #000000",
"f+	c #000000",
"g+	c #000000",
"h+	c #000000",
"i+	c #000000",
"j+	c #000000",
"k+	c #000000",
"l+	c #000000",
"m+	c #000000",
"n+	c #000000",
"o+	c #000000",
"p+	c #000000",
"q+	c #000000",
"r+	c #000000",
"s+	c #000000",
"t+	c #000000",
"u+	c #000000",
"v+	c #000000",
"w+	c #000000",
"x+	c #000000",
"y+	c #000000",
"z+	c #000000",
"A+	c #000000",
"B+	c #000000",
"C+	c #000000",
"D+	c #000000",
"E+	c #000000",
"F+	c #000000",
"G+	c #000000",
"t.z x v y F.E.E.E.E.w.v.u.x t.v.t.u.u.t.t.v v u.v.u.u.u.u.t.t.t.",
"E.v.z ~ x E.v.v.u.v.u.v.t.w y u.t.v.v.t.y u w F.E.w.E.E.E.E.E.E.",
"v.u.x ! x E.u.u.t.u.t.u.t.v w z t.t.u.t.x { w E.u.t.t.t.t.u.v.u.",
"u.z u ! x w.u.t.t.t.t.v.z { { x x w v u { ! w E.u.t.u.u.u.u.u.t.",
"x v ~ ! x v.v.u.t.u.v.v.z { { v w x x w v { x w.u.t.t.t.z x x x ",
"! ! ! ~ x u.u.t.u.t.t.u.z { ~ z w.F.G.E.t.w w z y w w v u u { ~ ",
"u u u u x t.v.v.t.t.t.t.y { ! u.F.w.v.u.t.v { v u ~ ~ { u u u u ",
"t.t.t.t.u z w.u.u.t.t.t.y { ! u.F.v.u.t.y u u u.z w y t.u.u.t.u.",
"t.u.u.y ~ x u.t.u.u.t.z x { ~ z u.z z y w { v w.u.x w.F.E.w.v.w.",
"t.u.u.w ~ w y x y y x v { ! ! v w v u u ~ ~ x v.t.x E.w.u.u.t.t.",
"z u.u.w ! v v { ~ ! ! { { { { w t.v.u.z v v v.v.t.x w.v.t.t.z z ",
"u.t.t.v w w.u.t.t.t.w u.E.E.w.w.w.E.E.v.w x E.w.z w w.w.u.t.u.u.",
"z y x { x F.w.u.u.u.x w.F.E.w.v.w.v.w.v.w x F.w.z w z t.y x y z ",
"u { ! ) x F.v.u.t.t.w w.E.v.u.t.u.t.u.t.v x G.w.y w { ~ { { ~ ~ ",
"t.u.u.t.z F.v.u.u.t.v v.E.v.u.t.t.t.t.z v x F.w.x v t.t.y x w u ",
"E.E.E.w.t.G.w.u.u.z u t.E.w.t.t.z t.t.z u x F.w.x v E.E.u.t.z x ",
"v.v.v.u.t.G.w.v.u.y { { E.F.u.t.t.z t.x { x F.v.x v w.w.u.u.t.x ",
"v.v.u.z y E.v.u.u.y { { v.E.v.u.u.t.z w { x w.z w v u.v.t.t.t.x ",
"w.u.t.z y w.v.v.u.y { { t.v.u.u.u.u.z w { v x v v v x y y y y x ",
"w.u.t.z x t.v.v.v.z { ! x z z x x x v u { v u w w w w v u u v u ",
"w.v.u.t.w x v.v.u.y { ) u x x x x x x x x x y t.t.t.t.t.t.t.t.x ",
"v.v.u.t.{ w u.u.t.y u ) w u.E.w.E.E.E.w.E.E.F.G.G.G.G.G.F.F.w.z ",
"u.t.t.z ~ w u.t.z x v ! u v.E.w.w.w.w.w.w.w.v.v.u.u.t.t.t.u.t.x ",
"t.z y y ~ w t.z y x v ! ~ v.E.v.v.v.v.v.v.v.u.t.t.z z z t.t.z x ",
"u v w w { v x x x w u ! ! v.E.u.u.u.t.t.t.u.u.t.z z z t.t.t.z x ",
"u u v { { { { { { ~ ! ) ) t.u.z z t.u.u.t.t.t.z z z t.t.t.z y w ",
"w.E.w.v.t.x v ~ ~ ~ ~ ~ ~ w w v v w y y x x x x x x x x x x x v ",
"F.E.E.v.E.E.w.w.w.w.w.w.v.u.t.t.x u { { u u u { { { { ~ { { u u ",
"E.v.u.t.v.E.w.w.w.w.w.E.E.w.v.u.x u x v.t.y x v { { { { { { u v ",
"v.t.z z z t.z y y y y t.t.t.t.z v ~ z E.w.v.u.x u.u.t.z z y y x ",
"x v v v v v v v v v v v v v v v { ! x t.u.u.u.x w.w.w.u.u.u.u.x ",
"~ ~ ~ ~ ~ ! ! ! ! ! ! ! ! ! ! ! ! ~ u w w x w v t.z t.z z t.z w "};
