/* XPM */
static char * c_xpm[] = {
"32 32 280 2",
"  	c #299C18",
". 	c #10790C",
"+ 	c #088308",
"@ 	c #189420",
"# 	c #108B10",
"$ 	c #16811A",
"% 	c #E0CB8E",
"& 	c #F2DB9A",
"* 	c #CAB67F",
"= 	c #C9B67F",
"- 	c #F2DB9B",
"; 	c #D5A734",
"> 	c #8F8159",
", 	c #C2AC6D",
"' 	c #DEBE72",
") 	c #DFCA8E",
"! 	c #A9996A",
"~ 	c #A7986A",
"{ 	c #C3B07C",
"] 	c #FFE7A2",
"^ 	c #FEE6A1",
"/ 	c #DEC98D",
"( 	c #EAC775",
"_ 	c #E6B333",
": 	c #90825B",
"< 	c #8B7D56",
"[ 	c #B39C58",
"} 	c #6D5902",
"| 	c #9F7F1B",
"1 	c #E2C67F",
"2 	c #A68620",
"3 	c #D3A733",
"4 	c #E0B036",
"5 	c #E8CB81",
"6 	c #FADD93",
"7 	c #CEA330",
"8 	c #89720F",
"9 	c #E9D190",
"0 	c #E2B95B",
"a 	c #BE942D",
"b 	c #8C7E57",
"c 	c #B29B57",
"d 	c #156913",
"e 	c #0F5D04",
"f 	c #DDAD32",
"g 	c #DFC681",
"h 	c #F4DC99",
"i 	c #B39D59",
"j 	c #A1862F",
"k 	c #A0821E",
"l 	c #AD9651",
"m 	c #2B1F04",
"n 	c #463E29",
"o 	c #D3BD80",
"p 	c #DAAC33",
"q 	c #DAAB31",
"r 	c #FCE4A0",
"s 	c #FDE5A1",
"t 	c #F4C864",
"u 	c #B09A55",
"v 	c #89742C",
"w 	c #49412C",
"x 	c #9C8D61",
"y 	c #D3A532",
"z 	c #DBAC33",
"A 	c #B48F21",
"B 	c #F3C761",
"C 	c #FCE4A1",
"D 	c #F3C763",
"E 	c #FCE5A1",
"F 	c #E0BD68",
"G 	c #856D00",
"H 	c #B19D63",
"I 	c #524300",
"J 	c #DAB561",
"K 	c #897C56",
"L 	c #E4B337",
"M 	c #94780C",
"N 	c #F3C458",
"O 	c #FBE19B",
"P 	c #F3C864",
"Q 	c #F8D889",
"R 	c #F9D98A",
"S 	c #DFB653",
"T 	c #876F00",
"U 	c #897100",
"V 	c #796C46",
"W 	c #9B8648",
"X 	c #795E1A",
"Y 	c #F2D284",
"Z 	c #5B5237",
"` 	c #8B6C1F",
" .	c #AD8A1D",
"..	c #AF8B1A",
"+.	c #F8D786",
"@.	c #FBE099",
"#.	c #F8D787",
"$.	c #F0BC3C",
"%.	c #D2A62F",
"&.	c #887000",
"*.	c #4B3D00",
"=.	c #5C5237",
"-.	c #D6BF7F",
";.	c #3E3100",
">.	c #57420E",
",.	c #EEC66A",
"'.	c #877953",
").	c #2E2105",
"!.	c #C99E30",
"~.	c #917609",
"{.	c #DEAF34",
"].	c #F0BE43",
"^.	c #F2C355",
"/.	c #B79122",
"(.	c #776200",
"_.	c #150F00",
":.	c #B7A160",
"<.	c #2C2300",
"[.	c #443202",
"}.	c #E2BA5F",
"|.	c #D6C187",
"1.	c #6E6446",
"2.	c #A68225",
"3.	c #EAB739",
"4.	c #F1BC3C",
"5.	c #F1BD3D",
"6.	c #C59C2A",
"7.	c #A8871B",
"8.	c #604E00",
"9.	c #716748",
"0.	c #968248",
"a.	c #A79253",
"b.	c #1B1200",
"c.	c #5C4300",
"d.	c #B9902A",
"e.	c #B78F2B",
"f.	c #E4B339",
"g.	c #F2BE3D",
"h.	c #F2BD3D",
"i.	c #F4C353",
"j.	c #D6AE4B",
"k.	c #D7AE4A",
"l.	c #D7BC75",
"m.	c #856E00",
"n.	c #806A00",
"o.	c #A88325",
"p.	c #60490F",
"q.	c #31A420",
"r.	c #766100",
"s.	c #846D00",
"t.	c #B19B57",
"u.	c #AD8E33",
"v.	c #A18118",
"w.	c #1D1600",
"x.	c #AA881E",
"y.	c #EBB83A",
"z.	c #B29234",
"A.	c #E9B73E",
"B.	c #3A2C07",
"C.	c #413400",
"D.	c #E3C880",
"E.	c #544206",
"F.	c #41AC29",
"G.	c #DCC78B",
"H.	c #735F00",
"I.	c #DDC78B",
"J.	c #3A3421",
"K.	c #E4CE90",
"L.	c #9E8A4C",
"M.	c #3F3825",
"N.	c #867954",
"O.	c #F4CC70",
"P.	c #F1C04E",
"Q.	c #7F6526",
"R.	c #776B4A",
"S.	c #EEC871",
"T.	c #BB9D4F",
"U.	c #786C4B",
"V.	c #CBAA5E",
"W.	c #A18F57",
"X.	c #1C1600",
"Y.	c #A0801B",
"Z.	c #F5CE74",
"`.	c #F2C458",
" +	c #A38D45",
".+	c #C4AE6C",
"++	c #7D6700",
"@+	c #231B00",
"#+	c #133F02",
"$+	c #B69022",
"%+	c #F9DA8E",
"&+	c #F7D583",
"*+	c #E7CF8B",
"=+	c #866F00",
"-+	c #7E6706",
";+	c #322506",
">+	c #433A2A",
",+	c #CFA32E",
"'+	c #A28317",
")+	c #A28837",
"!+	c #E4C980",
"~+	c #F5D383",
"{+	c #EEBE4D",
"]+	c #8E7406",
"^+	c #E8B638",
"/+	c #816534",
"(+	c #0562D7",
"_+	c #423131",
":+	c #9D7A15",
"<+	c #B59021",
"[+	c #BE9726",
"}+	c #D6A82E",
"|+	c #D5A82E",
"1+	c #D5A831",
"2+	c #9D7B1E",
"3+	c #7E613C",
"4+	c #0061D6",
"5+	c #0E60D7",
"6+	c #38A6E7",
"7+	c #33A9EC",
"8+	c #0049A6",
"9+	c #004BA8",
"0+	c #0048A7",
"a+	c #00005D",
"b+	c #0B005B",
"c+	c #1645AE",
"d+	c #145ACE",
"e+	c #0071ED",
"f+	c #37A4E5",
"g+	c #33ACF8",
"h+	c #006FEC",
"i+	c #0070EC",
"j+	c #040226",
"k+	c #115CD1",
"l+	c #349FE4",
"m+	c #006CE4",
"n+	c #001D47",
"o+	c #0C0440",
"p+	c #1358CA",
"q+	c #241A8D",
"r+	c #2031A0",
"s+	c #3AB8FA",
"t+	c #35AEF8",
"u+	c #0272EC",
"v+	c #016FEB",
"w+	c #013273",
"x+	c #005AC0",
"y+	c #004699",
"z+	c #003476",
"A+	c #002353",
"B+	c #1056C3",
"C+	c #1A4BBA",
"D+	c #222C9A",
"E+	c #3497DA",
"F+	c #284DA1",
"G+	c #2F7CC1",
"H+	c #1B49B8",
"I+	c #21309D",
"J+	c #1459CD",
"K+	c #1055C2",
"L+	c #0053B2",
"M+	c #0069DE",
"N+	c #002150",
"O+	c #005ABF",
"P+	c #1650BD",
"Q+	c #2F7CC3",
"R+	c #3392D4",
"S+	c #3497D9",
"T+	c #3498D9",
"U+	c #056BE5",
"V+	c #0969E2",
"W+	c #0A68E1",
"X+	c #006BE3",
"Y+	c #0058BD",
"Z+	c #0055B9",
"`+	c #30A8E2",
" @	c #0B79D7",
".@	c #0062D4",
"+@	c #0062D5",
"@@	c #124D18",
"  . . + @ # @ @ # + #   # @ #   # @ @ #   @     @ # @   # $ #   ",
"@ % & * + @ + @ + @ @ +   @   #   #     #   #   #     # = - ; # ",
"# > , ' ) + ! ~ { ] ^ ^ ^ ^ ^ ^ ^ ^ ^ ^ ^ ^ ] { ~ !   / ( _ : @ ",
"< [ + } | 1 2 3 4 5 6 6 6 6 6 6 6 6 6 6 6 6 5 4 7 8 9 0 a @ [ < ",
"b c + # d e f g h i j j j k j j j j j j j j i h h l m m #   c b ",
"n o # # @ # p q r s s s s t s s s s s s s s s r s u   #   @ v w ",
"@ x y + # # z A B C r r C D r r r r r r r r r E F G #     H I @ ",
"+ # J K # + L M N O r r E P Q Q Q Q Q Q Q Q R S T U @   V W     ",
"# @ X Y Z @ `  ...+.@.r #.$.$.$.$.$.$.$.$.$.%.&.U *.@ =.-.;.@   ",
"@ + @ >.,.'.).!.~.{.].^.$.$.$.$.$.$.$.$.$./.&.&.(._.'.:.<.@   @ ",
"@ @ + @ [.}.|.1.2.3.$.$.$.$.$.$.$.4.5.6.7.T &.8.9.0.a.b.      @ ",
"# + @ # @ + c.d.e.f.g.g.h.h.i.j.k.l.m.T U U n.o.d.p.@ @ q.q.@ @ ",
"@ + # # + @ + @ # @ # # r.s. .~.t.u.v.r.# + q.  @ @ q.q.  @ @   ",
"@ # @ + @ + # # # + @ + + w.x.y.z.A.B.+ #       @   @ @       q.",
"+ @ + @ # # + # + # # @ @ # C.D.%.E.+ @   q.F.  @   q.    @ q.@ ",
"# @ # # + # # # @ @ # + @ + @ G.H.@ # q.  F.q.q.F.@   @ @   @   ",
"+ # # + @ # @ @ # + # @ + # + I.r.# q.  q.F.  q.  q.  @   @     ",
"@ + @ @ + @ + @ + @ @ + @ # J.K.L.M.q.      q.      q.@     @   ",
"# @ @ + # + # @ @ # @ # @ + N.O.P.Q.    q.  q.  q.q.      @   @ ",
"+ # + @ @ @ @ # # @ + # + # R.S.T.U.      q.      q.  q.    @ @ ",
"@ @ + # @ + # @ + @ + @ # + V.t c W.F.F.q.      q.  q.  q.  q.  ",
"+ # # # @ # + @ # + @ + X.Y.Z.`. +.+++@+q.q.q.  q.  q.q.F.      ",
"@ + @ + # # @ # + # #+(.$+$.%+&+D.*+&.=+-+;+  F.  q.      q.F.  ",
"# # + @ # + @ + @ @ >+,+'+'+)+!+~+{+]+]+^+/+q.      q.q.  F.q.q.",
"@   # @ + @ + @ # # (+_+:+<+[+}+|+1+<+2+3+4+q.q.q.  q.  q.F.  q.",
"  #   # @ # @ @ #   5+6+7+8+9+0+a+a+b+c+d+e+  q.q.  q.      q.  ",
"    #   + @ + # F.  5+f+g+h+i+i+i+i+i+i+i+i+    F.      q.  q.  ",
"@ #   @   + @     j+k+l+g+h+i+i+i+i+i+i+i+m+n+    q.      q.    ",
"  # @ @ #   @ q.o+p+q+r+s+t+u+u+i+i+v+v+w+x+y+z+    F.F.  F.  q.",
"  @   #   @ @ @ A+B+C+D+E+F+G+G+H+H+I+J+K+L+M+N+  F.q.      q.F.",
"#   #     @ @ q.q.  O+P+Q+R+S+T+J+U+V+W+X+Y+  F.F.    q.q.q.F.  ",
"@   @   @ q.  @ @ @ F.  q.Z+`+ @.@+@@@@@  F.q.      F.  q.    q."};
