/* XPM */
static char * e_xpm[] = {
"32 32 368 2",
"  	c #299C18",
". 	c #108B10",
"+ 	c #088308",
"@ 	c #189420",
"# 	c #189220",
"$ 	c #0E800E",
"% 	c #075E07",
"& 	c #127818",
"* 	c #067706",
"= 	c #108A10",
"- 	c #0E7F0E",
"; 	c #053E08",
"> 	c #000000",
", 	c #000400",
"' 	c #012E01",
") 	c #084E0C",
"! 	c #0A6A0A",
"~ 	c #31A420",
"{ 	c #161306",
"] 	c #6A5F27",
"^ 	c #5A5221",
"/ 	c #29250C",
"( 	c #040401",
"_ 	c #044204",
": 	c #0D7E0D",
"< 	c #033C03",
"[ 	c #9C8D3F",
"} 	c #F6DB60",
"| 	c #EBD45D",
"1 	c #C2AF4E",
"2 	c #605625",
"3 	c #044504",
"4 	c #15871C",
"5 	c #023302",
"6 	c #0C0A03",
"7 	c #A08F40",
"8 	c #EDD55D",
"9 	c #BD9C29",
"0 	c #B28E27",
"a 	c #C6A32E",
"b 	c #6A5E25",
"c 	c #034C03",
"d 	c #053D07",
"e 	c #151203",
"f 	c #F3D95F",
"g 	c #C19E2E",
"h 	c #9C7300",
"i 	c #493C08",
"j 	c #065406",
"k 	c #117517",
"l 	c #867C34",
"m 	c #EBD35B",
"n 	c #C5A030",
"o 	c #A27300",
"p 	c #A17300",
"q 	c #483A0B",
"r 	c #0C6011",
"s 	c #077E07",
"t 	c #053C07",
"u 	c #4B4519",
"v 	c #C4A634",
"w 	c #A67C01",
"x 	c #A57A00",
"y 	c #A37901",
"z 	c #413208",
"A 	c #0D6613",
"B 	c #196B0D",
"C 	c #117718",
"D 	c #279516",
"E 	c #30A01F",
"F 	c #189320",
"G 	c #0B710B",
"H 	c #000C01",
"I 	c #95822C",
"J 	c #AC840B",
"K 	c #9D7704",
"L 	c #927A24",
"M 	c #A87E00",
"N 	c #3E3008",
"O 	c #045D04",
"P 	c #021201",
"Q 	c #06470A",
"R 	c #0F7016",
"S 	c #0F880F",
"T 	c #024302",
"U 	c #393012",
"V 	c #B8992A",
"W 	c #6D5909",
"X 	c #AF9D42",
"Y 	c #AF8600",
"Z 	c #AD8400",
"` 	c #3B2C08",
" .	c #0F6E15",
"..	c #088208",
"+.	c #168B1D",
"@.	c #077C07",
"#.	c #174A0A",
"$.	c #988C3C",
"%.	c #746831",
"&.	c #231E0C",
"*.	c #17590D",
"=.	c #14841B",
"-.	c #001400",
";.	c #5B5326",
">.	c #2C270C",
",.	c #B5A144",
"'.	c #B88F00",
").	c #B68D00",
"!.	c #3A2B00",
"~.	c #056605",
"{.	c #046204",
"].	c #011A01",
"^.	c #033205",
"/.	c #067506",
"(.	c #0C760C",
"_.	c #17650C",
":.	c #0C3C05",
"<.	c #C8B34D",
"[.	c #EED45B",
"}.	c #B7A345",
"|.	c #0B5A10",
"1.	c #17911F",
"2.	c #299B18",
"3.	c #065706",
"4.	c #040301",
"5.	c #B9A142",
"6.	c #C19800",
"7.	c #BF9700",
"8.	c #3A2D00",
"9.	c #107317",
"0.	c #0F870F",
"a.	c #033005",
"b.	c #2F2A15",
"c.	c #4C4621",
"d.	c #776C30",
"e.	c #49411B",
"f.	c #033305",
"g.	c #19690D",
"h.	c #BC9F37",
"i.	c #C9A000",
"j.	c #8D741A",
"k.	c #0A3705",
"l.	c #155F0A",
"m.	c #279617",
"n.	c #0E810E",
"o.	c #012201",
"p.	c #0E0B02",
"q.	c #BFA834",
"r.	c #CDA400",
"s.	c #C7A102",
"t.	c #3B3001",
"u.	c #117818",
"v.	c #066F06",
"w.	c #3A351C",
"x.	c #E0C95A",
"y.	c #E6CF5C",
"z.	c #EBD35E",
"A.	c #E3CC5A",
"B.	c #4C441F",
"C.	c #032001",
"D.	c #958538",
"E.	c #B3A349",
"F.	c #CCAF42",
"G.	c #76600E",
"H.	c #2A250E",
"I.	c #032F04",
"J.	c #168D1E",
"K.	c #0D6713",
"L.	c #181504",
"M.	c #D5BE3C",
"N.	c #D8B700",
"O.	c #CBAB01",
"P.	c #362D00",
"Q.	c #056C05",
"R.	c #9A8D3D",
"S.	c #EBD143",
"T.	c #DBBB0D",
"U.	c #C0A00E",
"V.	c #E4C83A",
"W.	c #DDC954",
"X.	c #000001",
"Y.	c #A3923E",
"Z.	c #F1D858",
"`.	c #EACE41",
" +	c #D8B600",
".+	c #E8CC41",
"++	c #E5CE57",
"@+	c #043907",
"#+	c #279717",
"$+	c #221F0A",
"%+	c #E8CD42",
"&+	c #DEC200",
"*+	c #C6AD05",
"=+	c #282401",
"-+	c #023502",
";+	c #D2BE52",
">+	c #E0C616",
",+	c #CFB403",
"'+	c #3A2D10",
")+	c #B0962B",
"!+	c #C8B22A",
"~+	c #A4933E",
"{+	c #E1C60E",
"]+	c #E2C91D",
"^+	c #CCB527",
"/+	c #289817",
"(+	c #0A6D0A",
"_+	c #383211",
":+	c #EBD241",
"<+	c #E7CE00",
"[+	c #CCB406",
"}+	c #252202",
"|+	c #0F6C15",
"1+	c #000300",
"2+	c #81771D",
"3+	c #DEC603",
"4+	c #E7CE08",
"5+	c #918425",
"6+	c #372C10",
"7+	c #4E4510",
"8+	c #3A3513",
"9+	c #675D13",
"0+	c #D3BE07",
"a+	c #B49F03",
"b+	c #B29E03",
"c+	c #0F4B06",
"d+	c #0D6513",
"e+	c #504720",
"f+	c #EFD82A",
"g+	c #EFD900",
"h+	c #CDBA04",
"i+	c #191E01",
"j+	c #056905",
"k+	c #011801",
"l+	c #47411A",
"m+	c #504806",
"n+	c #CDB802",
"o+	c #EDD92E",
"p+	c #AE9D38",
"q+	c #25230F",
"r+	c #082E04",
"s+	c #26220B",
"t+	c #D3BD2B",
"u+	c #F0D900",
"v+	c #534A00",
"w+	c #000002",
"x+	c #15550C",
"y+	c #065506",
"z+	c #7D7130",
"A+	c #F4E01D",
"B+	c #F5E500",
"C+	c #D0C106",
"D+	c #111B03",
"E+	c #3C3515",
"F+	c #D3BE55",
"G+	c #50491E",
"H+	c #2B2A03",
"I+	c #E0CE14",
"J+	c #F7E426",
"K+	c #CCB840",
"L+	c #052402",
"M+	c #208112",
"N+	c #31350F",
"O+	c #DECD2F",
"P+	c #575200",
"Q+	c #14530B",
"R+	c #145C0A",
"S+	c #024602",
"T+	c #A6953F",
"U+	c #F8EB17",
"V+	c #F8EF00",
"W+	c #D0C806",
"X+	c #051402",
"Y+	c #075A07",
"Z+	c #807332",
"`+	c #F6DE4B",
" @	c #E3CF57",
".@	c #6D632F",
"+@	c #E6D538",
"@@	c #C0B50D",
"#@	c #124C09",
"$@	c #2D981D",
"%@	c #3C3F15",
"&@	c #EADA35",
"*@	c #F5E700",
"=@	c #544C00",
"-@	c #2B941C",
";@	c #30A21F",
">@	c #41AC29",
",@	c #108910",
"'@	c #AA9941",
")@	c #FFF411",
"!@	c #FFF400",
"~@	c #D5CB06",
"{@	c #011803",
"]@	c #1A6E0E",
"^@	c #17190D",
"/@	c #CABB25",
"(@	c #FBE937",
"_@	c #EED95A",
":@	c #FBEA3F",
"<@	c #FFF300",
"[@	c #978D06",
"}@	c #1F7113",
"|@	c #269216",
"1@	c #4A4919",
"2@	c #FEEB3D",
"3@	c #F3E501",
"4@	c #4A4702",
"5@	c #088008",
"6@	c #584F1E",
"7@	c #91890D",
"8@	c #C3BA02",
"9@	c #C1B603",
"0@	c #041E03",
"a@	c #269416",
"b@	c #256B16",
"c@	c #433B12",
"d@	c #DBCC27",
"e@	c #FBF122",
"f@	c #EADE13",
"g@	c #B9B106",
"h@	c #393906",
"i@	c #228713",
"j@	c #2C961D",
"k@	c #2A310D",
"l@	c #B0A525",
"m@	c #D1C900",
"n@	c #484801",
"o@	c #2D991D",
"p@	c #178E1E",
"q@	c #012801",
"r@	c #010000",
"s@	c #020200",
"t@	c #080700",
"u@	c #090800",
"v@	c #031E01",
"w@	c #31A320",
"x@	c #3EA527",
"y@	c #0E4906",
"z@	c #1C1B07",
"A@	c #151502",
"B@	c #0E0D00",
"C@	c #070600",
"D@	c #073103",
"E@	c #2F9D1E",
"F@	c #248C14",
"G@	c #060500",
"H@	c #0B0A00",
"I@	c #021401",
"J@	c #2E9A1E",
"K@	c #054C05",
"L@	c #0A3D04",
"M@	c #021601",
"N@	c #2D971D",
"O@	c #125308",
"P@	c #135909",
"Q@	c #18660C",
"R@	c #237C16",
"S@	c #218312",
"T@	c #2F9F1F",
"U@	c #1E6D12",
"V@	c #145B09",
"W@	c #30A11F",
"X@	c #3FA828",
"Y@	c #248D15",
"Z@	c #40AA28",
"`@	c #289917",
"  . . + @ . @ @ . + .   . @ .   . @ @ .   @     @ . @   . @ .   ",
"@ + @ @ + @ + @ + @ @ +   @   .   .     .   .   .     .   @   . ",
". @ @ + . + . @ # . @ . @ .   @ @     . @ . @     @   @   .   @ ",
"+ . + @ @ @ @ $ % & * = + . .   . @ .         @ @   . @ . @ . @ ",
"@ @ + . @ + - ; > , ' ) ! + +   @   @ @   @   .   . @ @ .   ~   ",
"+ . . . @ $ ' { ] ^ / ( _ . . . @ .   . . @ @ @   @   .   @ @   ",
"@ + @ + : < > [ } | 1 2 3 @ + . + @ @     @ .   .   .     @ ~ @ ",
"+ . + 4 5 6 7 8 9 0 a b c @ . . @ @ @ .   . @ . @   @   @ ~     ",
". @ - d e [ f g h h h i j . @ @ . + .   . @ .   . @ @ @ @ ~ @   ",
"@ + k > l m n o p p o q r + + @ + @ @ +   @   .   @ @ ~ ~ @   @ ",
"@ @ s t u v w x y x x z A . . @ @ . @ . @ . B C D E F @       @ ",
". + @ G H I J K L M M N O @ @ . . @ + . + . < > P Q R @ ~ ~ @ @ ",
"@ + . S T U V W X Y Z `  .. . @ ..+.@.@ . + #.$.%.&.*.~   @ @   ",
"@ . @ + =.-.;.>.,.'.).!.~.. {.t ].-.^./.(._.:.<.[.}.|.1.2.    ~ ",
"+ @ + @ = 3.> 4.5.6.7.8.9.0.a.b.c.d.e.f.g.> > h.i.j.k.l.m.@ ~ @ ",
". @ . . + n.o.p.q.r.s.t.u.v.w.x.y.z.A.B.C.D.E.F.r.G.H.I.J.  @   ",
"+ . . + @ . K.L.M.N.O.P.Q.3.R.S.T.U.V.W.X.Y.Z.`. +.+++@+#+@     ",
"@ + @ @ + @ Q.$+%+&+*+=+& -+;+>+,+'+)+!+> ~+{+&+&+]+^+; /+  @   ",
". @ @ + . + (+_+:+<+[+}+|+1+2+3+4+5+6+7+> 8+9+0+<+a+b+c+2.@   @ ",
"+ . + @ @ @ d+e+f+g+h+i+j+k+l+m+n+o+p+q+> r+s+t+u+v+w+x+    @ @ ",
"@ @ + . @ + y+z+A+B+C+D+(+E+F+G+H+I+J+K+L+M+N+O+B+P+Q+R+~   ~   ",
"+ . . . @ . S+T+U+V+W+X+Y+Z+`+ @.@+@V+@@#@$@%@&@*@=@-@;@>@      ",
"@ + @ + . ,@Q '@)@!@~@{@]@^@/@(@_@:@<@[@}@|@1@2@3@4@|@    ~ >@  ",
". . + @ . 5@d 6@7@8@9@0@a@b@c@d@e@f@g@h@i@j@k@l@m@n@o@~   >@~ ~ ",
"@   . @ + p@q@r@s@t@u@v@w@x@y@z@A@B@C@D@E@F@L+G@H@I@J@  ~ >@  ~ ",
"  .   . @ S k r K@L@> M@2.  N@O@P@Q@R@S@~ T@M+R@U@V@W@      ~   ",
"    .   + @ + ,@X@#+D Y@~   ~ /+E ;@2.  ~     2.Z@`@    ~   ~   ",
"@ .   @   + @     ~       ~       ~   ~   ~ ~     ~       ~     ",
"  . @ @ .   @ ~     >@>@  >@  ~ >@>@  ~ ~     ~     >@>@  >@  ~ ",
"  @   .   @ @ @   >@~       ~ >@>@~ ~   >@        >@~       ~ >@",
".   .     @ @ ~ ~     ~ ~ ~ >@    ~     ~     >@>@    ~ ~ ~ >@  ",
"@   @   @ ~   @ @ @ >@  ~     ~ ~   ~ ~   >@~       >@  ~     ~ "};
