/* XPM */
static char * p_xpm[] = {
"32 32 508 2",
"  	c #31A420",
". 	c #299C18",
"+ 	c #108B10",
"@ 	c #088308",
"# 	c #189420",
"$ 	c #E7E9E8",
"% 	c #C5D6C6",
"& 	c #F3E6E1",
"* 	c #E7CCC2",
"= 	c #EEDDD7",
"- 	c #E5E8E6",
"; 	c #78A788",
"> 	c #069250",
", 	c #8AA692",
"' 	c #D1D5C5",
") 	c #E4ADA4",
"! 	c #D29887",
"~ 	c #DBB4A9",
"{ 	c #B9AAA3",
"] 	c #9AAF9E",
"^ 	c #95AB9A",
"/ 	c #3C9252",
"( 	c #D6A5A4",
"_ 	c #C0C6B4",
": 	c #F8BEC2",
"< 	c #EC0128",
"[ 	c #F46577",
"} 	c #E66A78",
"| 	c #DC5560",
"1 	c #EE6F80",
"2 	c #CF4A46",
"3 	c #C05439",
"4 	c #C8423E",
"5 	c #AD6040",
"6 	c #E5DAD9",
"7 	c #8DAD85",
"8 	c #FCDBDE",
"9 	c #F18089",
"0 	c #C5BEB9",
"a 	c #18894C",
"b 	c #018F4F",
"c 	c #487A46",
"d 	c #498E4F",
"e 	c #009452",
"f 	c #107F46",
"g 	c #1B8E4F",
"h 	c #C8ABA6",
"i 	c #FCE2E4",
"j 	c #E6DCD6",
"k 	c #D4D0C5",
"l 	c #E45654",
"m 	c #C66863",
"n 	c #9B6237",
"o 	c #9A6136",
"p 	c #546237",
"q 	c #965E34",
"r 	c #955E35",
"s 	c #51693B",
"t 	c #9A5E35",
"u 	c #A05F35",
"v 	c #C55452",
"w 	c #DC3937",
"x 	c #F6B7BB",
"y 	c #A6C09F",
"z 	c #C78E7A",
"A 	c #9A5831",
"B 	c #A55F35",
"C 	c #BE693B",
"D 	c #BB6C3C",
"E 	c #BF723F",
"F 	c #CD7B43",
"G 	c #B87543",
"H 	c #B57B54",
"I 	c #CB8E75",
"J 	c #F1B7B7",
"K 	c #E4C4B9",
"L 	c #DB9F83",
"M 	c #DDB9AD",
"N 	c #BA5F35",
"O 	c #BC6136",
"P 	c #BF6538",
"Q 	c #C06739",
"R 	c #C36A3B",
"S 	c #CA733F",
"T 	c #CB7440",
"U 	c #D8844A",
"V 	c #DEB6A6",
"W 	c #DB9C7C",
"X 	c #EED3C7",
"Y 	c #B69B7B",
"Z 	c #D5BEB5",
"` 	c #D2D5DC",
" .	c #A48386",
"..	c #9D7571",
"+.	c #A07169",
"@.	c #9B6559",
"#.	c #9C665B",
"$.	c #9C7471",
"%.	c #A5878C",
"&.	c #D3D5DD",
"*.	c #C9B0A8",
"=.	c #B7A083",
"-.	c #A8CBBB",
";.	c #0F8169",
">.	c #005B71",
",.	c #F4D3D4",
"'.	c #F28E8D",
").	c #F3948F",
"!.	c #F1848A",
"~.	c #F59897",
"{.	c #98CBE7",
"].	c #9ACCE9",
"^.	c #98CBE8",
"/.	c #96C6E5",
"(.	c #D2E3F2",
"_.	c #006380",
":.	c #11846B",
"<.	c #A8CCBC",
"[.	c #8D97B0",
"}.	c #0B616E",
"|.	c #1D7465",
"1.	c #005281",
"2.	c #F3C4C6",
"3.	c #F17A81",
"4.	c #CABED2",
"5.	c #EDBBC5",
"6.	c #F04F59",
"7.	c #7BADD3",
"8.	c #7697C2",
"9.	c #CC93B2",
"0.	c #5A86B4",
"a.	c #CCE2F4",
"b.	c #006F9F",
"c.	c #1B7C71",
"d.	c #0B7897",
"e.	c #909FBF",
"f.	c #DADFE6",
"g.	c #5C739C",
"h.	c #003D84",
"i.	c #564575",
"j.	c #D07D48",
"k.	c #5A527E",
"l.	c #F3C5C6",
"m.	c #ED7F86",
"n.	c #B2C0D9",
"o.	c #E0BECC",
"p.	c #F1525A",
"q.	c #AABACF",
"r.	c #B3A5B6",
"s.	c #C1839C",
"t.	c #968E9E",
"u.	c #DFECF7",
"v.	c #5D6C9A",
"w.	c #D07F4A",
"x.	c #4C88C0",
"y.	c #0083CC",
"z.	c #5C8BC0",
"A.	c #DDE2EA",
"B.	c #DBDEE5",
"C.	c #57719B",
"D.	c #003E85",
"E.	c #004790",
"F.	c #4B527B",
"G.	c #8E7950",
"H.	c #545E88",
"I.	c #F3C6C8",
"J.	c #F05756",
"K.	c #EE7078",
"L.	c #F0656D",
"M.	c #F16954",
"N.	c #A78194",
"O.	c #52689E",
"P.	c #5167A1",
"Q.	c #425997",
"R.	c #CBD2E0",
"S.	c #4E6B98",
"T.	c #907B53",
"U.	c #478DC0",
"V.	c #008FD7",
"W.	c #008DD6",
"X.	c #5394C9",
"Y.	c #DCE0E8",
"Z.	c #596F98",
"`.	c #1F4A89",
" +	c #00468F",
".+	c #004D99",
"++	c #007471",
"@+	c #007C70",
"#+	c #006F8A",
"$+	c #CDDDED",
"%+	c #83B3DA",
"&+	c #98B9DD",
"*+	c #83B4DB",
"=+	c #C19BA3",
"-+	c #EE6D59",
";+	c #E7566B",
">+	c #E96771",
",+	c #E8626C",
"'+	c #F1CCD1",
")+	c #007C9E",
"!+	c #007D6D",
"~+	c #0095A4",
"{+	c #3AA0DC",
"]+	c #5F97C6",
"^+	c #A2A9BC",
"/+	c #416294",
"(+	c #00428A",
"_+	c #004B96",
":+	c #00549F",
"<+	c #1E6384",
"[+	c #457670",
"}+	c #1E679D",
"|+	c #CCE1F1",
"1+	c #C585A7",
"2+	c #7E9CC6",
"3+	c #82B2D5",
"4+	c #F05059",
"5+	c #E7BDC8",
"6+	c #BEBED5",
"7+	c #EF7C83",
"8+	c #F3C6CA",
"9+	c #1776AD",
"0+	c #447C75",
"a+	c #1E8EB9",
"b+	c #2A99DA",
"c+	c #68B5E2",
"d+	c #AABAD3",
"e+	c #24447E",
"f+	c #3D6499",
"g+	c #004F9A",
"h+	c #0058A4",
"i+	c #595386",
"j+	c #D37F47",
"k+	c #606490",
"l+	c #DDE7F2",
"m+	c #928F9F",
"n+	c #BD7893",
"o+	c #9D9FBC",
"p+	c #C0C4CF",
"q+	c #F15059",
"r+	c #E6C4CF",
"s+	c #BCC9DE",
"t+	c #EF7F87",
"u+	c #5F6995",
"v+	c #D48048",
"w+	c #4F8AC2",
"x+	c #0D95D9",
"y+	c #5AB3E3",
"z+	c #4690C6",
"A+	c #D0D4DD",
"B+	c #00367A",
"C+	c #506E9F",
"D+	c #004892",
"E+	c #00519D",
"F+	c #005BA7",
"G+	c #3F5794",
"H+	c #7E7458",
"I+	c #46708F",
"J+	c #C9CFDD",
"K+	c #5A6B9F",
"L+	c #556CA4",
"M+	c #5870A7",
"N+	c #6A7CAB",
"O+	c #F25C61",
"P+	c #F05865",
"Q+	c #EF5B69",
"R+	c #F16061",
"S+	c #F1D1D5",
"T+	c #427492",
"U+	c #7F7E69",
"V+	c #3E8CCB",
"W+	c #0791D8",
"X+	c #61B1E2",
"Y+	c #3998D2",
"Z+	c #D1D5E0",
"`+	c #BABFCC",
" @	c #00377B",
".@	c #4B6D9F",
"+@	c #004993",
"@@	c #00529E",
"#@	c #005CA8",
"$@	c #005AA0",
"%@	c #008265",
"&@	c #02856A",
"*@	c #7485A1",
"=@	c #89A5C8",
"-@	c #86A6CE",
";@	c #87A6C7",
">@	c #A9B5C8",
",@	c #B6BDD4",
"'@	c #8DA6C7",
")@	c #8CA5CD",
"!@	c #8EA5C7",
"~@	c #7394B5",
"{@	c #00907E",
"]@	c #008A6E",
"^@	c #008FD4",
"/@	c #38A3DE",
"(@	c #0085CD",
"_@	c #BAC2D3",
":@	c #B9BECB",
"<@	c #38629A",
"[@	c #0062AB",
"}@	c #006D87",
"|@	c #477171",
"1@	c #C47749",
"2@	c #BD744D",
"3@	c #0D8B8E",
"4@	c #008B74",
"5@	c #456A6E",
"6@	c #437476",
"7@	c #008D70",
"8@	c #2D8984",
"9@	c #C47748",
"0@	c #C0764D",
"a@	c #207A87",
"b@	c #0092B6",
"c@	c #39A2DD",
"d@	c #007DC6",
"e@	c #B9C1D2",
"f@	c #CACED8",
"g@	c #3C6399",
"h@	c #004791",
"i@	c #004F9B",
"j@	c #0063AE",
"k@	c #006EB8",
"l@	c #0074BD",
"m@	c #3E8AC3",
"n@	c #407DBA",
"o@	c #00779D",
"p@	c #337E7E",
"q@	c #80745F",
"r@	c #847961",
"s@	c #308286",
"t@	c #0089B2",
"u@	c #447EBB",
"v@	c #419BD4",
"w@	c #349FDB",
"x@	c #0069B3",
"y@	c #C9CEDB",
"z@	c #84AE87",
"A@	c #113A7A",
"B@	c #345A91",
"C@	c #184D91",
"D@	c #004C97",
"E@	c #5175AE",
"F@	c #B5C3DA",
"G@	c #5A89C0",
"H@	c #0072BC",
"I@	c #3B93D0",
"J@	c #0086CF",
"K@	c #008AD2",
"L@	c #257985",
"M@	c #C59785",
"N@	c #C79883",
"O@	c #228797",
"P@	c #31A2DD",
"Q@	c #70ACE0",
"R@	c #479EDB",
"S@	c #1694D8",
"T@	c #2A8DCC",
"U@	c #10549B",
"V@	c #B7D3BA",
"W@	c #8F97AF",
"X@	c #00397D",
"Y@	c #42689D",
"Z@	c #7E91B5",
"`@	c #F3F6F9",
" #	c #8BA1C5",
".#	c #5A85BC",
"+#	c #0F6EB6",
"@#	c #4590C9",
"##	c #007DC7",
"$#	c #1A70AF",
"%#	c #5B6B5B",
"&#	c #D1B7B3",
"*#	c #CFB8B4",
"=#	c #5B756B",
"-#	c #198AC8",
";#	c #459EDB",
">#	c #F0F7FC",
",#	c #C7DEF1",
"'#	c #CFE2F3",
")#	c #2993D7",
"!#	c #3D98D2",
"~#	c #0060AA",
"{#	c #8B98B5",
"]#	c #41AC29",
"^#	c #E6E8ED",
"/#	c #29467F",
"(#	c #395A90",
"_#	c #325B97",
":#	c #D4D9E4",
"<#	c #E2E8F0",
"[#	c #CCD5E4",
"}#	c #477AB6",
"|#	c #3D84C0",
"1#	c #0173BD",
"2#	c #0077C1",
"3#	c #006EA5",
"4#	c #3D6876",
"5#	c #3C819A",
"6#	c #008FCA",
"7#	c #008ED6",
"8#	c #0290D7",
"9#	c #2B9FDC",
"0#	c #C3DAF0",
"a#	c #E0ECF7",
"b#	c #8FBCE5",
"c#	c #F1F7FB",
"d#	c #4B92CC",
"e#	c #2C74B3",
"f#	c #235092",
"g#	c #E5E7ED",
"h#	c #C5CAD5",
"i#	c #0C397A",
"j#	c #436496",
"k#	c #49689C",
"l#	c #E8ECF1",
"m#	c #8B9EC1",
"n#	c #226BAF",
"o#	c #3279B9",
"p#	c #6B9ACD",
"q#	c #B2C7E0",
"r#	c #ABC9E5",
"s#	c #1886CE",
"t#	c #2995D5",
"u#	c #6AAADC",
"v#	c #EFF5FA",
"w#	c #86AFD9",
"x#	c #9FBADA",
"y#	c #6A96C6",
"z#	c #3775B1",
"A#	c #0C4990",
"B#	c #C4CAD6",
"C#	c #BEC3CF",
"D#	c #173C7B",
"E#	c #395D92",
"F#	c #7187AE",
"G#	c #93A1BF",
"H#	c #004E99",
"I#	c #00539F",
"J#	c #427BB5",
"K#	c #4177B4",
"L#	c #E5EDF4",
"M#	c #4E83BD",
"N#	c #1F74BA",
"O#	c #0171BB",
"P#	c #0273BC",
"Q#	c #358BC6",
"R#	c #3E81C0",
"S#	c #6D95C6",
"T#	c #0067B1",
"U#	c #296EB1",
"V#	c #306BA8",
"W#	c #16488C",
"X#	c #BFC4D1",
"Y#	c #D7DAE2",
"Z#	c #56658E",
"`#	c #264D87",
" $	c #426498",
".$	c #2E5896",
"+$	c #17549B",
"@$	c #5A84B6",
"#$	c #E6ECF3",
"$$	c #7893BF",
"%$	c #4777B3",
"&$	c #035EA9",
"*$	c #3D7CB7",
"=$	c #0F61AA",
"-$	c #0159A5",
";$	c #2162A7",
">$	c #366BA7",
",$	c #215695",
"'$	c #536795",
")$	c #D5D8E1",
"!$	c #B4B9C7",
"~$	c #485A89",
"{$	c #2F5088",
"]$	c #395E94",
"^$	c #3A6098",
"/$	c #37649E",
"($	c #7493BA",
"_$	c #A7B6CD",
":$	c #A4B5CD",
"<$	c #5580B2",
"[$	c #3468A4",
"}$	c #3363A0",
"|$	c #37649D",
"1$	c #21508F",
"2$	c #4A5F90",
"3$	c #B4BAC9",
"4$	c #D7DCE4",
"5$	c #A2ACC1",
"6$	c #687B9F",
"7$	c #435F90",
"8$	c #446394",
"9$	c #406396",
"0$	c #385F94",
"a$	c #446596",
"b$	c #426092",
"c$	c #6B7EA3",
"d$	c #A1ACC1",
"e$	c #D7DCE5",
"f$	c #C5D6C9",
"g$	c #E0E4EA",
"h$	c #E1E4EA",
"i$	c #D5E1D9",
"  . + + @ # + # # + @ + . + # + . + # # + . # . . # + # . + # + ",
"  # @ # # @ # @ # @ # # @ . # . $ % + . . + . + . + . . + . # . ",
"+ + # # @ + @ + # # & * = # - ; > , . . + # + # . . # . # . + . ",
"# @ + @ # # # # + + ' ) ! ~ { ] ^ / ( _ . . . . # # . + # + # + ",
"@ # # @ + # @ + # @ : < [ } | 1 2 3 4 5 6 . # . + . + # # + .   ",
"+ @ + + + # + @ # 7 8 9 0 a b c d e f g h i j # # . # . + . # # ",
"+ # @ # @ + + # + k l m n o p q r s t u v w x + . + . + . . #   ",
"+ @ + @ # + @ # @ # y z A B C D E F G H I J + # + # . # . #   . ",
"@ + # + # @ # @ # K L M N O P Q R S T U V W X + . + # # # #   # ",
"+ # @ # + # + # # Y Z `  ...+.@.#.+.$.%.&.*.=.. + . # #     # . ",
"@ # # @ # @ # @ -.;.>.,.'.).!.~.{.].^./.(._.:.<.# .   # # . . . ",
"# + @ # + # @ [.}.|.1.2.3.4.5.6.7.8.9.0.a.b.c.d.e.  # # #     # ",
"@ # @ + + f.g.h.i.j.k.l.m.n.o.p.q.r.s.t.u.v.w.x.y.z.A.    . # # ",
"+ # + # B.C.D.E.F.G.H.I.J.K.L.M.N.O.P.Q.R.S.T.U.V.W.X.Y.# . . . ",
"# @ # @ Z.`. +.+++@+#+$+%+&+*+=+-+;+>+,+'+)+!+~+V.V.{+]+. . #   ",
"@ + # ^+/+(+_+:+<+[+}+|+0.1+2+3+4+5+6+7+8+9+0+a+V.V.b+c+d+# . # ",
"# @ + e+f+ +g+h+i+j+k+l+m+n+o+p+q+r+s+t+8+u+v+w+V.V.x+y+z+. # . ",
"@ # A+B+C+D+E+F+G+H+I+J+K+L+M+N+O+P+Q+R+S+T+U+V+V.V.W+X+Y+Z+. # ",
"+ + `+ @.@+@@@#@$@%@&@*@=@-@;@>@,@'@)@!@~@{@]@^@V.V.V./@(@_@# . ",
"# @ :@ @<@+@E+F+[@}@|@1@2@3@4@5@6@7@8@9@0@a@b@V.V.V.V.c@d@e@. # ",
"@ # f@B+g@h@i@h+j@k@l@m@n@o@p@q@r@s@t@u@v@V.V.V.V.V.V.w@x@y@.   ",
"+ @ z@A@B@C@D@E@F@G@H@I@J@K@L@M@N@O@V.V.P@V.Q@R@V.V.S@T@U@V@. . ",
"# # @ W@X@Y@Z@`@ #.#+#@###$#%#&#*#=#-#V.c@;#>#,#'#)#!#~#{#.   ]#",
"# + + ^#/#(#_#:#<#[#}#|#1#2#3#4#5#6#7#8#9#0#a#b#c#d#e#f#g#. ]#  ",
"+ # . + h#i#j#k#l#m#h+n#o#k@p#q#r#s#J@t#u#v#w#x#y#z#A#B#.   ]#. ",
"# . + . + C#D#E#F#G#H#I#J#K#L#M#N#O#P#Q#R#S#T#U#V#W#X#  . . .   ",
"+ . . + . @ Y#Z#`# $.$+@+$@$#$$$%$&$*$=$-$;$>$,$'$)$. . .   .   ",
". # + . # . @ # !$~${$]$^$/$($_$:$<$[$}$|$1$2$3$. .   . . .   . ",
"+ . + # # + . #   . 4$5$6$7$8$9$0$a$b$c$d$e$. .   . . ]#]#. ]#. ",
"# . # . + . # # # . ]#  . . f$g$h$i$    . ]#. . . . ]#  . . .   ",
". + . + . . # #     . .       ]#. .   . .   . . ]#]#. .       ]#",
"+ # . # . #   . # # # ]#.   . .     .     . ]#  . . . ]#.   . . "};
